<svg width="40" height="40" viewBox="0 0 40 40" fill="none" xmlns="http://www.w3.org/2000/svg">
<g id="Icon - Anchor">
<circle id="Icon Bg" cx="20" cy="20.0001" r="20" fill="#F9F7F7"/>
<g id="Icon">
<path id="Vector" d="M18.7173 15.0653C20.3177 14.6365 21.2674 12.9915 20.8386 11.3911C20.4098 9.79068 18.7647 8.84094 17.1643 9.26976C15.564 9.69859 14.6142 11.3436 15.043 12.944C15.4719 14.5444 17.1169 15.4941 18.7173 15.0653Z" stroke="#F33D01" stroke-width="2" stroke-linecap="round" stroke-linejoin="round"/>
<path id="Vector_2" d="M22.3407 28.5882L18.7173 15.0653" stroke="#F33D01" stroke-width="2" stroke-linecap="round" stroke-linejoin="round"/>
<path id="Vector_3" d="M12.991 20.7407L10.0932 21.5172C10.7797 24.079 12.4556 26.2631 14.7525 27.5892C17.0493 28.9153 19.7789 29.2747 22.3407 28.5882C24.9025 27.9018 27.0867 26.2258 28.4127 23.929C29.7388 21.6321 30.0982 18.9026 29.4117 16.3408L26.514 17.1172" stroke="#F33D01" stroke-width="2" stroke-linecap="round" stroke-linejoin="round"/>
</g>
</g>
</svg>
