<svg width="163" height="58" viewBox="0 0 163 58" fill="none" xmlns="http://www.w3.org/2000/svg">
<g id="Logo">
<path d="M32.2109 41.7663C32.2445 40.4448 32.2923 38.9152 32.3543 37.1774C32.4162 35.4396 32.4874 33.6244 32.5678 31.7317C32.6469 29.8239 32.7255 27.9084 32.8035 25.9853C32.8967 24.061 32.9918 22.2593 33.089 20.58C32.4061 22.198 31.7161 23.8242 31.0192 25.4586C30.3223 27.0931 29.6573 28.6483 29.0244 30.1243C28.4054 31.5839 27.8294 32.9098 27.2964 34.1019C26.7786 35.2928 26.3574 36.2538 26.0327 36.9848C25.7204 37.4848 25.4064 37.9619 25.0905 38.4161C24.7746 38.8704 24.4545 39.2713 24.1303 39.6189C23.8212 39.9653 23.5073 40.2507 23.1886 40.4751C22.8688 40.6843 22.5493 40.8015 22.2302 40.8266C21.8048 40.8601 21.4557 40.7955 21.183 40.633C20.9255 40.4692 20.7824 40.2044 20.7536 39.8386C20.7476 39.7624 20.7422 39.6938 20.7374 39.6329C20.7466 39.5555 20.7634 39.4775 20.7878 39.3989C20.5263 37.2418 20.2864 35.0677 20.0681 32.8765C19.8486 30.6701 19.6548 28.5 19.4869 26.3663C19.4473 25.8633 19.4077 25.3603 19.3681 24.8574C19.3286 24.3544 19.2972 23.8585 19.274 23.3695C18.7742 24.7891 18.2254 26.2662 17.6276 27.8008C17.0299 29.3354 16.4005 30.8571 15.7396 32.366C15.0774 33.8597 14.3889 35.3094 13.674 36.7152C12.9578 38.1058 12.2327 39.3821 11.4986 40.544C10.7633 41.6907 10.0236 42.6844 9.27947 43.5251C8.54936 44.3493 7.83164 44.9426 7.12632 45.3048C6.50856 45.6141 5.96837 45.8407 5.50575 45.9844C5.04433 46.1434 4.63129 46.2373 4.26663 46.266C3.71965 46.309 3.30041 46.227 3.00892 46.0199C2.73383 45.8268 2.58369 45.5703 2.5585 45.2502C2.52851 44.8692 2.65686 44.4604 2.94355 44.0237C3.23024 43.5871 3.65327 43.2318 4.21266 42.9577C4.88999 42.6284 5.60231 41.9665 6.34962 40.9722C7.11093 39.9615 7.87943 38.7509 8.65513 37.3403C9.43082 35.9297 10.2021 34.3661 10.969 32.6495C11.7359 30.9329 12.4706 29.1958 13.1732 27.4382C13.8909 25.6795 14.5584 23.963 15.1758 22.2889C15.792 20.5995 16.3371 19.0767 16.8114 17.7205C17.2856 16.3643 17.6708 15.2375 17.9671 14.34C18.2774 13.4261 18.4697 12.8589 18.5441 12.6384C18.7196 12.1491 18.9889 11.7829 19.352 11.5396C19.715 11.2963 20.0941 11.1592 20.4891 11.1281C21.0361 11.085 21.428 11.2075 21.6647 11.4956C21.9002 11.7685 22.0479 12.2859 22.1079 13.048C22.305 13.9986 22.4751 14.8977 22.6183 15.7452C22.7754 16.5763 22.9198 17.4391 23.0513 18.3335C23.1817 19.2128 23.2952 20.17 23.392 21.2052C23.5027 22.2239 23.6109 23.404 23.7164 24.7452C23.792 25.7054 23.8526 26.7664 23.8982 27.9284C23.9589 29.0891 24.0457 30.3858 24.1585 31.8185C25.7203 28.3524 27.1005 25.2993 28.2993 22.6592C29.512 20.0027 30.5678 17.7803 31.4666 15.992C32.3795 14.1872 33.1588 12.8224 33.8045 11.8974C34.4491 10.9572 34.9841 10.4704 35.4095 10.4369L35.569 10.4243C35.6146 10.4207 35.6602 10.4172 35.7058 10.4136C35.7502 10.3947 35.7951 10.3835 35.8407 10.3799C36.2054 10.3512 36.5121 10.5571 36.7608 10.9976C37.0095 11.4381 37.1626 12.0242 37.2202 12.7558C37.2182 13.5074 37.2002 14.4442 37.1662 15.5664C37.1322 16.6886 37.0844 17.9269 37.0229 19.2813C36.9753 20.6192 36.9185 22.0346 36.8525 23.5273C36.7865 25.0201 36.72 26.5052 36.6528 27.9827C36.5844 29.445 36.5206 30.8686 36.4615 32.2534C36.4175 33.6371 36.3861 34.8894 36.3673 36.0104C36.3525 36.2109 36.3535 36.4179 36.3703 36.6313C36.3859 36.8294 36.4021 37.0352 36.4189 37.2485C36.4501 37.6448 36.4894 38.0481 36.537 38.4584C36.5834 38.8535 36.6222 39.2492 36.6534 39.6454C36.6894 40.1027 36.7032 40.5693 36.6948 41.0454C36.6852 41.5062 36.589 41.9355 36.4063 42.3333C36.2375 42.7146 35.9418 43.037 35.5192 43.3003C35.0978 43.5788 34.4996 43.7486 33.7247 43.8095C33.3145 43.8418 32.9752 43.7075 32.7069 43.4066C32.4398 43.1209 32.2745 42.5741 32.2109 41.7663Z" fill="black"/>
<path d="M45.3486 20.3889C45.321 20.0384 45.3536 19.6754 45.4464 19.3C45.5531 18.9083 45.7237 18.5498 45.958 18.2246C46.1923 17.8995 46.4916 17.6229 46.8558 17.3948C47.2353 17.1656 47.6909 17.0301 48.2227 16.9882C49.1039 16.9189 49.7331 17.0457 50.1101 17.3688C50.486 17.6766 50.6943 18.0896 50.7351 18.6078C50.7579 18.8974 50.7223 19.2222 50.6283 19.5823C50.5496 19.9412 50.4082 20.2821 50.2043 20.6048C49.9992 20.9124 49.7221 21.1795 49.373 21.4064C49.024 21.6332 48.5987 21.7664 48.0973 21.8058C47.1553 21.88 46.483 21.7872 46.0803 21.5275C45.6765 21.2526 45.4326 20.873 45.3486 20.3889ZM43.2464 25.7301C43.4711 25.2831 43.7434 24.9549 44.0633 24.7457C44.3832 24.5365 44.7178 24.4182 45.0673 24.3906C45.6447 24.3452 46.1535 24.4969 46.5937 24.8456C47.0479 25.1779 47.2978 25.6337 47.3434 26.2128C47.339 26.3512 47.327 26.4902 47.3074 26.6297C47.303 26.7681 47.2682 26.9088 47.2031 27.052C47.0215 27.465 46.8732 27.8141 46.758 28.0992C46.6429 28.3843 46.5341 28.6535 46.4318 28.907C46.3434 29.144 46.255 29.3809 46.1667 29.6179C46.0783 29.8549 45.9707 30.1394 45.844 30.4715C45.6917 30.8668 45.5195 31.3021 45.3276 31.7773C45.1345 32.2372 44.9501 32.7118 44.7746 33.201C44.6143 33.689 44.4761 34.1677 44.3602 34.6369C44.2594 35.1049 44.224 35.5294 44.254 35.9104C44.2864 36.3219 44.4067 36.5885 44.6151 36.7101C44.8374 36.8153 45.1385 36.8529 45.5183 36.8231C45.9437 36.7896 46.3772 36.6634 46.8186 36.4447C47.2752 36.2247 47.7277 35.9514 48.1759 35.6247C48.6241 35.2981 49.0617 34.9339 49.4888 34.5323C49.9146 34.1154 50.31 33.7009 50.6751 33.2887C51.0554 32.8754 51.4936 32.523 51.8003 32.1461C52.1221 31.7681 52.5452 31.6403 52.7516 31.348C53.0326 31.0345 53.0714 30.6158 53.3752 30.5918C53.6487 30.5703 53.8787 30.6749 54.065 30.9056C54.2665 31.1351 54.3823 31.4404 54.4122 31.8214C54.4398 32.172 54.3781 32.5526 54.2269 32.9632C54.091 33.3726 53.8393 33.7681 53.4718 34.1498C52.7593 35.0033 52.0292 35.8276 51.2815 36.6225C50.5326 37.4022 49.7549 38.1075 48.9484 38.7384C48.1559 39.3529 47.3474 39.8612 46.5229 40.2635C45.6984 40.6658 44.8532 40.901 43.9871 40.9692C42.7564 41.066 41.7594 40.8301 40.9961 40.2614C40.2468 39.6763 39.8193 38.7131 39.7138 37.3719C39.6586 36.6708 39.7034 35.9772 39.8481 35.291C39.9929 34.6048 40.1774 33.9386 40.4017 33.2921C40.6248 32.6305 40.8655 31.9981 41.1238 31.395C41.3809 30.7767 41.5949 30.1924 41.7656 29.6423C41.826 29.4381 41.9311 29.1232 42.0811 28.6973C42.2462 28.2702 42.4183 27.835 42.5975 27.3915C42.801 26.8694 43.0173 26.3156 43.2464 25.7301Z" fill="black"/>
<path d="M54.0778 22.972C54.4577 22.9421 54.7867 22.9469 55.065 22.9863C55.3433 23.0258 55.582 23.145 55.7811 23.344C55.9791 23.5278 56.1374 23.7914 56.2561 24.1348C56.3737 24.4629 56.4541 24.9013 56.4973 25.45L56.7042 28.0791L61.4291 23.4286C62.1536 22.7275 62.9033 22.3464 63.6782 22.2855C64.1341 22.2496 64.5223 22.3264 64.843 22.5158C65.1637 22.7053 65.3378 22.9753 65.3654 23.3259C65.3822 23.5392 65.3242 23.7738 65.1915 24.0297C65.0739 24.2843 64.8804 24.5449 64.6109 24.8115L57.548 31.8083L58.0662 34.896C58.125 35.6428 58.4203 35.9953 58.9521 35.9534C59.5294 35.908 60.2344 35.6378 61.0669 35.1429C61.8981 34.6328 62.8512 33.9213 63.9259 33.0086L66.3958 30.8819C66.6561 30.6927 66.9306 30.5868 67.2192 30.5641C67.5383 30.539 67.8056 30.6329 68.0211 30.846C68.2506 31.0427 68.3792 31.3163 68.4068 31.6668C68.4368 32.0478 68.3272 32.5012 68.0781 33.0269C67.8442 33.5514 67.3824 34.0938 66.6927 34.6541C65.6167 35.5516 64.6672 36.3088 63.8444 36.9256C63.0367 37.5413 62.2896 38.0525 61.603 38.4592C60.9305 38.8495 60.2963 39.1448 59.7006 39.3451C59.12 39.5441 58.5258 39.6675 57.9181 39.7154C56.5506 39.823 55.4944 39.5151 54.7495 38.7916C54.0198 38.0669 53.5866 36.8358 53.4498 35.0983L48.4999 39C48.2292 39.2513 47.7814 39.3858 47.4999 39.5C47.2045 39.6306 46.7582 39.9796 46.4999 40C46.0137 40.0382 46.254 40.503 45.8994 40.2702C45.5447 40.0374 45.3524 39.7305 45.3224 39.3495C45.2888 38.9227 45.5293 38.4821 46.0439 38.0275L52.5814 31.348L52.1442 25.7926C52.0902 25.1068 52.1551 24.5726 52.3391 24.19C52.523 23.8075 52.7381 23.5299 52.9844 23.3571C53.2295 23.1691 53.4654 23.0586 53.6922 23.0254C53.9189 22.9922 54.0474 22.9744 54.0778 22.972Z" fill="black"/>
<path d="M74.5904 25.1532C73.8763 25.2094 73.1993 25.4467 72.5596 25.8651C71.9338 26.2671 71.386 26.7856 70.9162 27.4207C70.4604 28.0393 70.1099 28.734 69.8648 29.5047C69.6185 30.2602 69.5259 31.0266 69.5871 31.8039C69.6099 32.0935 69.6579 32.4118 69.7311 32.7588C69.803 33.0905 69.9194 33.4034 70.0801 33.6974C70.2549 33.9751 70.4868 34.2022 70.7759 34.3788C71.0649 34.5554 71.4374 34.6258 71.8932 34.5899C72.5921 34.5349 73.2539 34.2988 73.8785 33.8816C74.517 33.4479 75.0712 32.9136 75.541 32.2785C76.0096 31.6282 76.3659 30.9101 76.6098 30.1241C76.8537 29.3381 76.9451 28.5565 76.8839 27.7792C76.8599 27.4743 76.8125 27.1637 76.7417 26.8472C76.685 26.5143 76.5698 26.2166 76.3963 25.9542C76.2379 25.6907 76.0154 25.4858 75.7287 25.3397C75.4408 25.1783 75.0614 25.1162 74.5904 25.1532ZM75.4589 21.0363C76.0362 20.9908 76.6576 21.0186 77.3229 21.1196C78.0034 21.2194 78.6392 21.4301 79.2302 21.7516C79.8211 22.0731 80.3229 22.5244 80.7356 23.1053C81.1622 23.6699 81.4103 24.3941 81.4799 25.2781C81.5159 25.7353 81.4965 26.266 81.4217 26.8699C81.3457 27.4587 81.2114 28.0827 81.0186 28.7419C81.185 28.9129 81.3699 29.0287 81.5734 29.0893C81.777 29.15 81.9927 29.1714 82.2206 29.1534C82.5397 29.1283 82.8819 29.0094 83.2474 28.7966C83.628 28.5826 84.0121 28.3146 84.3995 27.9928C84.787 27.6709 85.1714 27.3109 85.5529 26.9129C85.9343 26.5148 86.293 26.1185 86.6289 25.724C86.9647 25.3295 87.2644 24.9609 87.5279 24.6181C87.8054 24.2589 88.0339 23.9572 88.2134 23.713C88.3114 23.5979 88.4364 23.5344 88.5883 23.5225C88.801 23.5057 88.9999 23.6051 89.1851 23.8206C89.369 24.0208 89.4766 24.319 89.5077 24.7153C89.5389 25.1116 89.4534 25.5784 89.251 26.1157C89.0639 26.6519 88.6735 27.227 88.0797 27.8412C87.7462 28.2661 87.3644 28.7563 86.9341 29.3115C86.5039 29.8668 86.0409 30.394 85.5451 30.8931C85.0493 31.3922 84.5253 31.8245 83.9731 32.19C83.4209 32.5555 82.8561 32.761 82.2788 32.8064C81.8837 32.8375 81.4915 32.807 81.102 32.715C80.7278 32.6217 80.3399 32.4529 79.9385 32.2085C79.4587 33.105 78.8969 33.9313 78.2531 34.6875C77.6094 35.4436 76.8743 36.1072 76.0478 36.6783C75.2365 37.2482 74.3403 37.7098 73.359 38.0631C72.3942 38.4304 71.3496 38.6583 70.2253 38.7468C69.7998 38.7803 69.2994 38.7353 68.7241 38.6119C68.1487 38.4885 67.5877 38.2566 67.0411 37.9162C66.5085 37.5594 66.0429 37.0823 65.6443 36.4849C65.2456 35.8875 65.0109 35.1392 64.9401 34.24C64.8922 33.6303 64.9333 32.891 65.0637 32.0219C65.194 31.1529 65.4214 30.2532 65.7456 29.3229C66.0839 28.3761 66.5221 27.4368 67.0603 26.505C67.6125 25.5567 68.2864 24.6985 69.0821 23.9305C69.8766 23.1472 70.8041 22.4991 71.8644 21.9862C72.9236 21.4581 74.1218 21.1415 75.4589 21.0363Z" fill="black"/>
<path d="M89.4885 30.0076C89.349 30.3713 89.2142 30.796 89.0843 31.2816C88.9683 31.7508 88.9248 32.1683 88.9536 32.5341C88.9715 32.7627 89.0315 32.942 89.1335 33.072C89.2354 33.202 89.4156 33.2569 89.6739 33.2365C89.9929 33.2114 90.3808 33.0889 90.8374 32.8689C91.308 32.6325 91.8048 32.3404 92.3278 31.9925C92.8648 31.6282 93.414 31.2246 93.9754 30.7817C94.5508 30.3223 95.1179 29.856 95.6769 29.3826C96.2347 28.8939 96.7627 28.4153 97.2609 27.9467C97.7731 27.4617 98.2275 27.0195 98.6242 26.6202C98.7373 26.504 98.8757 26.4164 99.0392 26.3575C99.2027 26.2987 99.3453 26.2644 99.4668 26.2549C99.7707 26.231 100.03 26.3179 100.244 26.5157C100.458 26.7136 100.579 26.9878 100.607 27.3383C100.632 27.6584 100.554 28.0249 100.372 28.4379C100.191 28.851 99.8493 29.2689 99.3475 29.6918C98.4458 30.6676 97.533 31.5982 96.609 32.4837C95.6849 33.3692 94.7537 34.1633 93.8153 34.8659C92.8908 35.5521 91.9568 36.1163 91.0131 36.5587C90.0847 36.9998 89.1647 37.2562 88.253 37.328C87.6301 37.377 87.0993 37.3344 86.6606 37.2002C86.2372 37.0649 85.8849 36.8626 85.6039 36.5933C85.338 36.3229 85.1362 35.9937 84.9987 35.6058C84.8611 35.2179 84.775 34.8029 84.7402 34.3609C84.6814 33.6141 84.7278 32.8437 84.8793 32.0496C85.0449 31.2392 85.2538 30.4943 85.5061 29.815C85.9443 28.5843 86.3908 27.3607 86.8454 26.144C87.3 24.9274 87.7169 23.8134 88.0959 22.8021L93.8411 7.51271C94.0678 6.89677 94.3994 6.44894 94.8361 6.16921C95.2879 5.88828 95.7493 5.72928 96.2203 5.69221C96.6914 5.65514 97.127 5.75121 97.5272 5.98041C97.9427 6.20842 98.1732 6.61201 98.2188 7.19118C98.2403 7.46552 98.1948 7.76049 98.082 8.07607C97.9845 8.39046 97.8507 8.73071 97.6808 9.0968C97.3573 9.84304 96.9704 10.7553 96.5202 11.8335C96.0852 12.9106 95.6118 14.0827 95.1 15.3498C94.6034 16.6158 94.0882 17.9369 93.5544 19.3131C93.0346 20.6728 92.52 22.0015 92.0106 23.2992C91.5164 24.5956 91.0477 25.8286 90.6047 26.9983C90.1757 28.1516 89.8036 29.1547 89.4885 30.0076Z" fill="black"/>
<path d="M105.951 22.6851C105.237 22.7413 104.56 22.9786 103.92 23.397C103.294 23.799 102.747 24.3175 102.277 24.9526C101.821 25.5712 101.47 26.2659 101.225 27.0366C100.979 27.7921 100.886 28.5585 100.948 29.3358C100.97 29.6254 101.018 29.9437 101.092 30.2906C101.164 30.6224 101.28 30.9352 101.441 31.2293C101.615 31.5069 101.847 31.7341 102.136 31.9107C102.425 32.0873 102.798 32.1576 103.254 32.1218C103.953 32.0668 104.614 31.8307 105.239 31.4134C105.878 30.9798 106.432 30.4454 106.902 29.8104C107.37 29.1601 107.726 28.4419 107.97 27.6559C108.214 26.87 108.306 26.0883 108.244 25.311C108.22 25.0062 108.173 24.6955 108.102 24.3791C108.045 24.0461 107.93 23.7485 107.757 23.4861C107.598 23.2225 107.376 23.0177 107.089 22.8715C106.801 22.7102 106.422 22.648 105.951 22.6851ZM106.819 18.5681C107.397 18.5227 108.018 18.5505 108.683 18.6515C109.364 18.7513 110 18.9619 110.591 19.2835C111.182 19.605 111.683 20.0563 112.096 20.6372C112.523 21.2017 112.771 21.926 112.84 22.81C112.876 23.2672 112.857 23.7978 112.782 24.4018C112.706 24.9905 112.572 25.6145 112.379 26.2738C112.546 26.4447 112.73 26.5605 112.934 26.6212C113.138 26.6819 113.353 26.7032 113.581 26.6853C113.9 26.6602 114.242 26.5412 114.608 26.3284C114.989 26.1144 115.373 25.8465 115.76 25.5246C116.148 25.2028 116.532 24.8428 116.913 24.4447C117.295 24.0467 117.654 23.6504 117.989 23.2559C118.325 22.8614 118.625 22.4927 118.888 22.15C119.166 21.7907 119.394 21.489 119.574 21.2449C119.672 21.1298 119.797 21.0663 119.949 21.0544C120.162 21.0376 120.36 21.137 120.546 21.3524C120.73 21.5527 120.837 21.8509 120.868 22.2472C120.899 22.6435 120.814 23.1103 120.612 23.6476C120.424 24.1837 120.034 24.7589 119.44 25.373C119.107 25.798 118.725 26.2881 118.295 26.8434C117.864 27.3987 117.401 27.9259 116.906 28.4249C116.41 28.924 115.886 29.3563 115.334 29.7218C114.781 30.0874 114.217 30.2928 113.639 30.3383C113.244 30.3694 112.852 30.3389 112.463 30.2468C112.088 30.1536 111.7 29.9848 111.299 29.7403C110.819 30.6369 110.257 31.4632 109.614 32.2193C108.97 32.9754 108.235 33.639 107.408 34.2102C106.597 34.7801 105.701 35.2417 104.72 35.595C103.755 35.9623 102.71 36.1902 101.586 36.2787C101.16 36.3121 100.66 36.2672 100.085 36.1438C99.5092 36.0203 98.9482 35.7885 98.4016 35.4481C97.8691 35.0913 97.4034 34.6142 97.0048 34.0168C96.6062 33.4194 96.3714 32.6711 96.3007 31.7719C96.2527 31.1622 96.2939 30.4229 96.4242 29.5538C96.5546 28.6847 96.7819 27.785 97.1062 26.8547C97.4444 25.908 97.8827 24.9687 98.4209 24.0368C98.9731 23.0886 99.647 22.2304 100.443 21.4624C101.237 20.679 102.165 20.031 103.225 19.5181C104.284 18.99 105.482 18.6734 106.819 18.5681Z" fill="black"/>
<path d="M126.807 16.9951C127.476 16.9424 128.067 16.9802 128.582 17.1084C129.096 17.2366 129.536 17.386 129.901 17.5567C130.316 17.7694 130.686 18.0087 131.013 18.2743C131.215 18.1204 131.432 17.9729 131.666 17.8319C131.87 17.7084 132.098 17.5984 132.351 17.5019C132.602 17.3901 132.857 17.3241 133.115 17.3038C133.783 17.2511 134.311 17.3477 134.697 17.5933C135.083 17.8389 135.291 18.1523 135.321 18.5333C135.337 18.7314 135.299 18.9338 135.209 19.1403L130.673 29.6878L131.075 29.2651C132.785 28.0723 134.194 27.1333 135.302 26.448C136.409 25.7475 137.293 25.2255 137.954 24.8821C138.615 24.5387 139.087 24.3252 139.371 24.2415C139.669 24.1414 139.856 24.0883 139.932 24.0824C140.281 24.0549 140.558 24.1711 140.762 24.4311C140.98 24.6747 141.104 24.9946 141.136 25.3908C141.17 25.8328 141.077 26.2926 140.854 26.7702C140.647 27.2466 140.293 27.6041 139.792 27.8429C139.136 28.2473 138.368 28.6911 137.489 29.1744C136.609 29.6424 135.694 30.1591 134.744 30.7246C133.795 31.29 132.843 31.917 131.888 32.6056C130.948 33.2777 130.073 34.0137 129.264 34.8134L125.474 43.1859C125.178 44.0834 124.9 44.8184 124.639 45.391C124.393 45.9624 124.139 46.4195 123.875 46.7623C123.612 47.1051 123.333 47.3494 123.039 47.4952C122.745 47.6411 122.4 47.7295 122.005 47.7606C121.412 47.8073 120.925 47.6386 120.543 47.2546C120.177 46.8694 119.97 46.3872 119.925 45.808C119.877 45.1984 119.965 44.4783 120.191 43.6478C120.416 42.8173 120.749 41.9092 121.192 40.9236C121.65 39.952 122.211 38.9187 122.874 37.8237C123.538 36.744 124.284 35.6348 125.112 34.4961L127.653 30.6615C127.118 31.2404 126.584 31.7425 126.052 32.1678C125.52 32.5931 125.005 32.948 124.508 33.2325C124.009 33.5017 123.536 33.7077 123.089 33.8502C122.656 33.9916 122.273 34.0754 121.939 34.1017C121.331 34.1496 120.758 34.0566 120.22 33.823C119.681 33.574 119.201 33.213 118.782 32.74C118.377 32.2657 118.042 31.694 117.775 31.0249C117.509 30.3558 117.343 29.6173 117.28 28.8096C117.148 27.133 117.348 25.5914 117.879 24.1847C118.426 22.7768 119.163 21.5609 120.092 20.537C121.034 19.4967 122.093 18.6696 123.267 18.0558C124.457 17.4407 125.637 17.0871 126.807 16.9951ZM126.258 21.0869C125.544 21.1431 124.867 21.3804 124.227 21.7988C123.586 22.202 123.031 22.7211 122.561 23.3562C122.09 23.976 121.732 24.6789 121.488 25.4649C121.245 26.2509 121.154 27.0477 121.218 27.8555C121.237 28.0994 121.273 28.3649 121.326 28.6521C121.394 28.9229 121.498 29.1754 121.638 29.4097C121.794 29.6428 122 29.8336 122.257 29.9821C122.527 30.1142 122.882 30.1629 123.323 30.1282C123.642 30.1031 124.004 29.9366 124.407 29.6288C124.825 29.3045 125.245 28.9111 125.668 28.4485C126.104 27.9694 126.522 27.4534 126.922 26.9006C127.32 26.3324 127.675 25.7831 127.984 25.2527C128.31 24.721 128.563 24.2487 128.744 23.8357C128.925 23.4074 129.007 23.0942 128.992 22.8961C128.965 22.5608 128.851 22.2784 128.65 22.0488C128.447 21.8041 128.202 21.6087 127.916 21.4625C127.644 21.3152 127.353 21.2154 127.043 21.1631C126.748 21.0944 126.486 21.069 126.258 21.0869Z" fill="black"/>
<path d="M151.68 17.1768C152.079 16.8081 152.416 16.5285 152.692 16.3381C152.981 16.1313 153.229 15.9814 153.436 15.8885C153.642 15.7803 153.827 15.712 153.993 15.6836C154.174 15.654 154.356 15.632 154.539 15.6177C154.858 15.5926 155.095 15.6966 155.251 15.9297C155.406 16.1475 155.493 16.386 155.514 16.6451C155.531 16.8585 155.508 17.0596 155.447 17.2485L151.182 28.3268C151.868 27.7207 152.661 27.1215 153.563 26.5291C154.478 25.9203 155.352 25.3761 156.186 24.8964C157.034 24.4003 157.759 23.9982 158.361 23.6901C158.979 23.3808 159.334 23.2225 159.425 23.2153C159.805 23.1854 160.15 23.3039 160.462 23.5708C160.773 23.8376 160.946 24.1921 160.981 24.6341C161.012 25.0304 160.893 25.4614 160.624 25.9274C160.37 26.3921 159.887 26.8595 159.175 27.3296C158.158 28.0077 157.272 28.5912 156.515 29.0802C155.758 29.5539 155.088 29.9823 154.507 30.3654C153.925 30.7486 153.41 31.0958 152.961 31.4072C152.511 31.7187 152.085 32.0359 151.682 32.359C151.295 32.6808 150.909 33.0179 150.524 33.3703C150.155 33.7367 149.753 34.1594 149.316 34.6385C149.039 35.5805 148.758 36.4844 148.475 37.3501C148.207 38.2147 147.953 38.9784 147.715 39.6413C147.492 40.3029 147.305 40.8391 147.154 41.2497C147.002 41.6603 146.92 41.8815 146.908 41.9131C145.878 44.5705 144.627 45.9572 143.153 46.0732C142.545 46.1211 142.035 45.9542 141.623 45.5725C141.212 45.2062 140.98 44.68 140.926 43.9942C140.875 43.3541 140.901 42.7079 141.002 42.0558C141.12 41.4178 141.347 40.7022 141.682 39.9091C142.032 39.1147 142.497 38.2193 143.076 37.223C143.671 36.2406 144.42 35.0775 145.324 33.7335L149.153 24.1157C147.088 27.0081 145.184 29.2435 143.443 30.8221C141.703 32.4006 140.027 33.2533 138.416 33.38C137.9 33.4207 137.449 33.3334 137.066 33.1183C136.683 32.9184 136.47 32.5441 136.427 31.9954C136.367 31.2333 136.481 30.3578 136.77 29.3689C136.942 28.834 137.118 28.3448 137.297 27.9013C137.475 27.4425 137.661 26.9908 137.855 26.5461C138.049 26.0862 138.247 25.5952 138.45 25.0731C138.669 24.5498 138.898 23.9643 139.138 23.3167C139.391 22.6527 139.66 21.8954 139.945 21.0449C140.244 20.1779 140.57 19.1708 140.923 18.0235C141.18 17.4051 141.541 16.9473 142.007 16.6499C142.472 16.3373 142.932 16.1631 143.388 16.1272C143.859 16.0901 144.263 16.1734 144.6 16.3769C144.951 16.5639 145.141 16.8404 145.17 17.2062C145.184 17.3891 145.166 17.5515 145.116 17.6934L141.631 26.7321C141.453 27.1908 141.374 27.5497 141.395 27.8088C141.413 28.0374 141.513 28.1446 141.695 28.1302C141.862 28.1171 142.068 28.0165 142.313 27.8285C142.559 27.6405 142.787 27.4309 142.998 27.1996L151.68 17.1768Z" fill="black"/>
</g>
</svg>
