<svg width="25" height="25" viewBox="0 0 25 25" fill="none" xmlns="http://www.w3.org/2000/svg">
<g clip-path="url(#clip0)">
<path d="M14.6925 12.0051C14.6925 13.2742 13.654 14.3029 12.3729 14.3029C11.0917 14.3029 10.0532 13.2742 10.0532 12.0051C10.0532 10.736 11.0917 9.70728 12.3729 9.70728C13.654 9.70728 14.6925 10.736 14.6925 12.0051Z" fill="#32DE84"/>
<path d="M17.7978 7.93956C17.6863 7.64025 17.5084 7.36932 17.2772 7.14694C17.0527 6.91796 16.7794 6.74174 16.4771 6.63128C16.2319 6.53694 15.8635 6.42465 15.185 6.39406C14.4511 6.3609 14.231 6.35376 12.3729 6.35376C10.5146 6.35376 10.2946 6.36072 9.56082 6.39388C8.88235 6.42465 8.5138 6.53694 8.26878 6.63128C7.96643 6.74174 7.69293 6.91796 7.46862 7.14694C7.23747 7.36932 7.05957 7.64006 6.94788 7.93956C6.85265 8.18246 6.73929 8.54754 6.70841 9.21964C6.67494 9.9465 6.66772 10.1645 6.66772 12.0053C6.66772 13.8459 6.67494 14.0639 6.70841 14.7909C6.73929 15.463 6.85265 15.8279 6.94788 16.0708C7.05957 16.3703 7.23728 16.6411 7.46843 16.8634C7.69293 17.0924 7.96624 17.2686 8.26859 17.3791C8.5138 17.4736 8.88235 17.5859 9.56082 17.6165C10.2946 17.6497 10.5145 17.6566 12.3727 17.6566C14.2312 17.6566 14.4513 17.6497 15.1848 17.6165C15.8633 17.5859 16.2319 17.4736 16.4771 17.3791C17.084 17.1472 17.5637 16.672 17.7978 16.0708C17.893 15.8279 18.0064 15.463 18.0374 14.7909C18.0709 14.0639 18.0779 13.8459 18.0779 12.0053C18.0779 10.1645 18.0709 9.9465 18.0374 9.21964C18.0066 8.54754 17.8932 8.18246 17.7978 7.93956ZM12.3729 15.5449C10.3993 15.5449 8.79932 13.9602 8.79932 12.0051C8.79932 10.05 10.3993 8.4653 12.3729 8.4653C14.3464 8.4653 15.9463 10.05 15.9463 12.0051C15.9463 13.9602 14.3464 15.5449 12.3729 15.5449ZM16.0876 9.15259C15.6264 9.15259 15.2525 8.7822 15.2525 8.32534C15.2525 7.86849 15.6264 7.4981 16.0876 7.4981C16.5488 7.4981 16.9227 7.86849 16.9227 8.32534C16.9226 8.7822 16.5488 9.15259 16.0876 9.15259Z" fill="#32DE84"/>
<path d="M12.3729 0C5.6808 0 0.253906 5.37584 0.253906 12.005C0.253906 18.6342 5.6808 24.01 12.3729 24.01C19.0651 24.01 24.4919 18.6342 24.4919 12.005C24.4919 5.37584 19.0651 0 12.3729 0ZM19.2899 14.8471C19.2563 15.5809 19.1385 16.0819 18.9665 16.5204C18.605 17.4464 17.866 18.1784 16.9312 18.5365C16.4887 18.7069 15.9828 18.8234 15.2422 18.8569C14.5001 18.8904 14.263 18.8985 12.3731 18.8985C10.483 18.8985 10.2461 18.8904 9.50387 18.8569C8.76326 18.8234 8.25731 18.7069 7.81479 18.5365C7.35027 18.3634 6.92976 18.0921 6.58211 17.7413C6.22817 17.3971 5.9543 16.9804 5.77955 16.5204C5.60757 16.0821 5.48977 15.5809 5.45612 14.8473C5.42191 14.112 5.41396 13.8771 5.41396 12.005C5.41396 10.1329 5.42191 9.89805 5.45593 9.16294C5.48959 8.42911 5.6072 7.92811 5.77918 7.48957C5.95393 7.0296 6.22798 6.61286 6.58211 6.26867C6.92957 5.91787 7.35027 5.64658 7.81461 5.47347C8.25731 5.30311 8.76307 5.18661 9.50387 5.15309C10.246 5.11957 10.483 5.11151 12.3729 5.11151C14.2628 5.11151 14.4999 5.11957 15.242 5.15327C15.9828 5.18661 16.4885 5.30311 16.9312 5.47329C17.3956 5.6464 17.8163 5.91787 18.1639 6.26867C18.5179 6.61305 18.7919 7.0296 18.9665 7.48957C19.1386 7.92811 19.2563 8.42911 19.2901 9.16294C19.3239 9.89805 19.3319 10.1329 19.3319 12.005C19.3319 13.8771 19.3239 14.112 19.2899 14.8471Z" fill="#32DE84"/>
</g>
<defs>
<clipPath id="clip0">
<rect width="24.238" height="24.01" fill="white" transform="translate(0.253906)"/>
</clipPath>
</defs>
</svg>
